<svg width="330" height="330" viewBox="0 0 330 330" fill="none" xmlns="http://www.w3.org/2000/svg">
<rect width="330" height="330" rx="50" fill="#00FF09"/>
<path d="M60.6151 77L48.1293 33.3636H58.2074L65.4304 63.6832H65.7926L73.7614 33.3636H82.3906L90.3381 63.7472H90.7216L97.9446 33.3636H108.023L95.5369 77H86.5455L78.2358 48.4702H77.8949L69.6065 77H60.6151ZM118.607 77.6179C116.519 77.6179 114.658 77.2557 113.025 76.5312C111.391 75.7926 110.098 74.706 109.147 73.2713C108.209 71.8224 107.74 70.0185 107.74 67.8594C107.74 66.0412 108.074 64.5142 108.742 63.2784C109.409 62.0426 110.319 61.0483 111.469 60.2955C112.62 59.5426 113.926 58.9744 115.39 58.5909C116.867 58.2074 118.415 57.9375 120.034 57.7812C121.938 57.5824 123.472 57.3977 124.637 57.2273C125.801 57.0426 126.647 56.7727 127.172 56.4176C127.698 56.0625 127.961 55.5369 127.961 54.8409V54.7131C127.961 53.3636 127.534 52.3196 126.682 51.581C125.844 50.8423 124.651 50.473 123.103 50.473C121.469 50.473 120.169 50.8352 119.203 51.5597C118.238 52.2699 117.598 53.1648 117.286 54.2443L108.891 53.5625C109.317 51.5739 110.155 49.8551 111.405 48.4062C112.655 46.9432 114.267 45.821 116.242 45.0398C118.23 44.2443 120.532 43.8466 123.145 43.8466C124.963 43.8466 126.703 44.0597 128.365 44.4858C130.042 44.9119 131.526 45.5724 132.819 46.4673C134.125 47.3622 135.155 48.5128 135.908 49.919C136.661 51.3111 137.037 52.9801 137.037 54.9261V77H128.429V72.4616H128.174C127.648 73.4844 126.945 74.3864 126.064 75.1676C125.184 75.9347 124.125 76.5384 122.89 76.9787C121.654 77.4048 120.226 77.6179 118.607 77.6179ZM121.206 71.3537C122.542 71.3537 123.721 71.0909 124.743 70.5653C125.766 70.0256 126.569 69.3011 127.151 68.392C127.733 67.483 128.025 66.4531 128.025 65.3026V61.8295C127.74 62.0142 127.35 62.1847 126.853 62.3409C126.37 62.483 125.823 62.6179 125.212 62.7457C124.601 62.8594 123.99 62.9659 123.38 63.0653C122.769 63.1506 122.215 63.2287 121.718 63.2997C120.652 63.456 119.722 63.7045 118.926 64.0455C118.131 64.3864 117.513 64.848 117.073 65.4304C116.632 65.9986 116.412 66.7088 116.412 67.5611C116.412 68.7969 116.86 69.7415 117.755 70.3949C118.664 71.0341 119.814 71.3537 121.206 71.3537ZM144.079 77V44.2727H153.156V77H144.079ZM148.639 40.054C147.289 40.054 146.132 39.6065 145.166 38.7116C144.214 37.8026 143.738 36.7159 143.738 35.4517C143.738 34.2017 144.214 33.1293 145.166 32.2344C146.132 31.3253 147.289 30.8707 148.639 30.8707C149.988 30.8707 151.139 31.3253 152.091 32.2344C153.056 33.1293 153.539 34.2017 153.539 35.4517C153.539 36.7159 153.056 37.8026 152.091 38.7116C151.139 39.6065 149.988 40.054 148.639 40.054ZM177.835 44.2727V51.0909H158.126V44.2727H177.835ZM162.6 36.4318H171.677V66.9432C171.677 67.7812 171.805 68.4347 172.06 68.9034C172.316 69.358 172.671 69.6776 173.126 69.8622C173.594 70.0469 174.134 70.1392 174.745 70.1392C175.171 70.1392 175.597 70.1037 176.023 70.0327C176.45 69.9474 176.776 69.8835 177.004 69.8409L178.431 76.5952C177.977 76.7372 177.337 76.9006 176.513 77.0852C175.69 77.2841 174.688 77.4048 173.509 77.4474C171.322 77.5327 169.404 77.2415 167.756 76.5739C166.123 75.9062 164.852 74.8693 163.942 73.4631C163.033 72.0568 162.586 70.2812 162.6 68.1364V36.4318ZM50.7926 150V106.364H60.0185V124.368H78.7472V106.364H87.9517V150H78.7472V131.974H60.0185V150H50.7926ZM110.175 150.639C106.865 150.639 104.003 149.936 101.588 148.53C99.1875 147.109 97.3338 145.135 96.027 142.607C94.7202 140.064 94.0668 137.116 94.0668 133.764C94.0668 130.384 94.7202 127.429 96.027 124.901C97.3338 122.358 99.1875 120.384 101.588 118.977C104.003 117.557 106.865 116.847 110.175 116.847C113.484 116.847 116.339 117.557 118.74 118.977C121.155 120.384 123.016 122.358 124.322 124.901C125.629 127.429 126.283 130.384 126.283 133.764C126.283 137.116 125.629 140.064 124.322 142.607C123.016 145.135 121.155 147.109 118.74 148.53C116.339 149.936 113.484 150.639 110.175 150.639ZM110.217 143.608C111.723 143.608 112.98 143.182 113.989 142.33C114.997 141.463 115.757 140.284 116.268 138.793C116.794 137.301 117.057 135.604 117.057 133.7C117.057 131.797 116.794 130.099 116.268 128.608C115.757 127.116 114.997 125.937 113.989 125.071C112.98 124.205 111.723 123.771 110.217 123.771C108.697 123.771 107.419 124.205 106.382 125.071C105.359 125.937 104.585 127.116 104.06 128.608C103.548 130.099 103.293 131.797 103.293 133.7C103.293 135.604 103.548 137.301 104.06 138.793C104.585 140.284 105.359 141.463 106.382 142.33C107.419 143.182 108.697 143.608 110.217 143.608ZM141.261 106.364V150H132.185V106.364H141.261ZM160.592 150.533C158.106 150.533 155.855 149.893 153.838 148.615C151.835 147.322 150.244 145.426 149.065 142.926C147.9 140.412 147.318 137.33 147.318 133.679C147.318 129.929 147.922 126.811 149.129 124.325C150.336 121.825 151.941 119.957 153.944 118.722C155.961 117.472 158.17 116.847 160.571 116.847C162.403 116.847 163.93 117.159 165.152 117.784C166.387 118.395 167.382 119.162 168.135 120.085C168.902 120.994 169.484 121.889 169.882 122.77H170.159V106.364H179.214V150H170.265V144.759H169.882C169.456 145.668 168.852 146.57 168.071 147.464C167.304 148.345 166.302 149.077 165.066 149.659C163.845 150.241 162.353 150.533 160.592 150.533ZM163.468 143.31C164.931 143.31 166.167 142.912 167.176 142.116C168.199 141.307 168.98 140.178 169.52 138.729C170.074 137.28 170.35 135.582 170.35 133.636C170.35 131.69 170.081 130 169.541 128.565C169.001 127.131 168.22 126.023 167.197 125.241C166.174 124.46 164.931 124.07 163.468 124.07C161.977 124.07 160.72 124.474 159.697 125.284C158.674 126.094 157.9 127.216 157.375 128.651C156.849 130.085 156.586 131.747 156.586 133.636C156.586 135.54 156.849 137.223 157.375 138.686C157.914 140.135 158.689 141.271 159.697 142.095C160.72 142.905 161.977 143.31 163.468 143.31ZM215.35 150.639C212.041 150.639 209.179 149.936 206.764 148.53C204.363 147.109 202.51 145.135 201.203 142.607C199.896 140.064 199.243 137.116 199.243 133.764C199.243 130.384 199.896 127.429 201.203 124.901C202.51 122.358 204.363 120.384 206.764 118.977C209.179 117.557 212.041 116.847 215.35 116.847C218.66 116.847 221.515 117.557 223.916 118.977C226.331 120.384 228.191 122.358 229.498 124.901C230.805 127.429 231.458 130.384 231.458 133.764C231.458 137.116 230.805 140.064 229.498 142.607C228.191 145.135 226.331 147.109 223.916 148.53C221.515 149.936 218.66 150.639 215.35 150.639ZM215.393 143.608C216.899 143.608 218.156 143.182 219.164 142.33C220.173 141.463 220.933 140.284 221.444 138.793C221.97 137.301 222.233 135.604 222.233 133.7C222.233 131.797 221.97 130.099 221.444 128.608C220.933 127.116 220.173 125.937 219.164 125.071C218.156 124.205 216.899 123.771 215.393 123.771C213.873 123.771 212.595 124.205 211.558 125.071C210.535 125.937 209.761 127.116 209.235 128.608C208.724 130.099 208.468 131.797 208.468 133.7C208.468 135.604 208.724 137.301 209.235 138.793C209.761 140.284 210.535 141.463 211.558 142.33C212.595 143.182 213.873 143.608 215.393 143.608ZM246.437 131.08V150H237.36V117.273H246.011V123.047H246.395C247.119 121.143 248.333 119.638 250.038 118.53C251.743 117.408 253.809 116.847 256.238 116.847C258.511 116.847 260.493 117.344 262.183 118.338C263.873 119.332 265.187 120.753 266.125 122.599C267.062 124.432 267.531 126.619 267.531 129.162V150H258.454V130.781C258.468 128.778 257.957 127.216 256.92 126.094C255.883 124.957 254.456 124.389 252.637 124.389C251.416 124.389 250.336 124.652 249.399 125.178C248.475 125.703 247.751 126.47 247.225 127.479C246.714 128.473 246.451 129.673 246.437 131.08ZM50.6222 223V190.273H59.6989V223H50.6222ZM55.1818 186.054C53.8324 186.054 52.6747 185.607 51.7088 184.712C50.7571 183.803 50.2812 182.716 50.2812 181.452C50.2812 180.202 50.7571 179.129 51.7088 178.234C52.6747 177.325 53.8324 176.871 55.1818 176.871C56.5313 176.871 57.6818 177.325 58.6335 178.234C59.5994 179.129 60.0824 180.202 60.0824 181.452C60.0824 182.716 59.5994 183.803 58.6335 184.712C57.6818 185.607 56.5313 186.054 55.1818 186.054ZM94.1999 199.605L85.8903 200.116C85.7482 199.406 85.4428 198.767 84.9741 198.199C84.5053 197.616 83.8874 197.155 83.1204 196.814C82.3675 196.459 81.4656 196.281 80.4144 196.281C79.0082 196.281 77.8221 196.58 76.8562 197.176C75.8903 197.759 75.4073 198.54 75.4073 199.52C75.4073 200.301 75.7198 200.962 76.3448 201.501C76.9698 202.041 78.0423 202.474 79.5621 202.801L85.4854 203.994C88.6673 204.648 91.0394 205.699 92.6019 207.148C94.1644 208.597 94.9457 210.5 94.9457 212.858C94.9457 215.003 94.3136 216.885 93.0494 218.504C91.7994 220.124 90.0806 221.388 87.8931 222.297C85.7198 223.192 83.2127 223.639 80.3718 223.639C76.0394 223.639 72.5877 222.737 70.0167 220.933C67.4599 219.115 65.9613 216.643 65.521 213.518L74.4485 213.05C74.7184 214.371 75.3718 215.379 76.4087 216.075C77.4457 216.757 78.7738 217.098 80.3931 217.098C81.984 217.098 83.2624 216.793 84.2283 216.182C85.2085 215.557 85.7056 214.754 85.7198 213.774C85.7056 212.95 85.3576 212.276 84.6758 211.75C83.994 211.21 82.9428 210.798 81.5224 210.514L75.8548 209.385C72.6587 208.746 70.2795 207.638 68.717 206.061C67.1687 204.484 66.3945 202.474 66.3945 200.031C66.3945 197.929 66.9627 196.118 68.0991 194.598C69.2496 193.078 70.8619 191.906 72.9357 191.082C75.0238 190.259 77.467 189.847 80.2653 189.847C84.3988 189.847 87.6516 190.72 90.0238 192.467C92.4102 194.214 93.8022 196.594 94.1999 199.605ZM131.956 190.273V197.091H112.247V190.273H131.956ZM116.721 182.432H125.798V212.943C125.798 213.781 125.926 214.435 126.181 214.903C126.437 215.358 126.792 215.678 127.247 215.862C127.716 216.047 128.255 216.139 128.866 216.139C129.292 216.139 129.718 216.104 130.145 216.033C130.571 215.947 130.897 215.884 131.125 215.841L132.552 222.595C132.098 222.737 131.458 222.901 130.635 223.085C129.811 223.284 128.809 223.405 127.63 223.447C125.443 223.533 123.525 223.241 121.877 222.574C120.244 221.906 118.973 220.869 118.064 219.463C117.154 218.057 116.707 216.281 116.721 214.136V182.432ZM147.648 204.08V223H138.571V179.364H147.392V196.047H147.776C148.515 194.115 149.708 192.602 151.355 191.509C153.003 190.401 155.07 189.847 157.556 189.847C159.828 189.847 161.81 190.344 163.5 191.338C165.205 192.318 166.526 193.732 167.463 195.578C168.415 197.411 168.884 199.605 168.87 202.162V223H159.793V203.781C159.807 201.764 159.296 200.195 158.259 199.072C157.236 197.95 155.801 197.389 153.955 197.389C152.719 197.389 151.625 197.652 150.674 198.178C149.736 198.703 148.998 199.47 148.458 200.479C147.932 201.473 147.662 202.673 147.648 204.08ZM176.013 223V190.273H185.089V223H176.013ZM180.572 186.054C179.223 186.054 178.065 185.607 177.099 184.712C176.148 183.803 175.672 182.716 175.672 181.452C175.672 180.202 176.148 179.129 177.099 178.234C178.065 177.325 179.223 176.871 180.572 176.871C181.922 176.871 183.072 177.325 184.024 178.234C184.99 179.129 185.473 180.202 185.473 181.452C185.473 182.716 184.99 183.803 184.024 184.712C183.072 185.607 181.922 186.054 180.572 186.054ZM219.591 199.605L211.281 200.116C211.139 199.406 210.833 198.767 210.365 198.199C209.896 197.616 209.278 197.155 208.511 196.814C207.758 196.459 206.856 196.281 205.805 196.281C204.399 196.281 203.213 196.58 202.247 197.176C201.281 197.759 200.798 198.54 200.798 199.52C200.798 200.301 201.11 200.962 201.735 201.501C202.36 202.041 203.433 202.474 204.953 202.801L210.876 203.994C214.058 204.648 216.43 205.699 217.993 207.148C219.555 208.597 220.336 210.5 220.336 212.858C220.336 215.003 219.704 216.885 218.44 218.504C217.19 220.124 215.471 221.388 213.284 222.297C211.11 223.192 208.603 223.639 205.762 223.639C201.43 223.639 197.978 222.737 195.407 220.933C192.85 219.115 191.352 216.643 190.912 213.518L199.839 213.05C200.109 214.371 200.762 215.379 201.799 216.075C202.836 216.757 204.164 217.098 205.784 217.098C207.375 217.098 208.653 216.793 209.619 216.182C210.599 215.557 211.096 214.754 211.11 213.774C211.096 212.95 210.748 212.276 210.066 211.75C209.385 211.21 208.333 210.798 206.913 210.514L201.245 209.385C198.049 208.746 195.67 207.638 194.108 206.061C192.559 204.484 191.785 202.474 191.785 200.031C191.785 197.929 192.353 196.118 193.49 194.598C194.64 193.078 196.252 191.906 198.326 191.082C200.414 190.259 202.858 189.847 205.656 189.847C209.789 189.847 213.042 190.72 215.414 192.467C217.801 194.214 219.193 196.594 219.591 199.605ZM90.892 274.182C90.892 278.94 89.9901 282.989 88.1861 286.327C86.3963 289.665 83.9531 292.214 80.8565 293.976C77.7741 295.723 74.3082 296.597 70.4588 296.597C66.581 296.597 63.1009 295.716 60.0185 293.955C56.9361 292.193 54.5 289.643 52.7102 286.305C50.9205 282.967 50.0256 278.926 50.0256 274.182C50.0256 269.423 50.9205 265.375 52.7102 262.037C54.5 258.699 56.9361 256.156 60.0185 254.409C63.1009 252.648 66.581 251.767 70.4588 251.767C74.3082 251.767 77.7741 252.648 80.8565 254.409C83.9531 256.156 86.3963 258.699 88.1861 262.037C89.9901 265.375 90.892 269.423 90.892 274.182ZM81.5384 274.182C81.5384 271.099 81.0767 268.5 80.1534 266.384C79.2443 264.267 77.9588 262.662 76.2969 261.568C74.6349 260.474 72.6889 259.928 70.4588 259.928C68.2287 259.928 66.2827 260.474 64.6207 261.568C62.9588 262.662 61.6662 264.267 60.7429 266.384C59.8338 268.5 59.3793 271.099 59.3793 274.182C59.3793 277.264 59.8338 279.864 60.7429 281.98C61.6662 284.097 62.9588 285.702 64.6207 286.795C66.2827 287.889 68.2287 288.436 70.4588 288.436C72.6889 288.436 74.6349 287.889 76.2969 286.795C77.9588 285.702 79.2443 284.097 80.1534 281.98C81.0767 279.864 81.5384 277.264 81.5384 274.182ZM109.615 296.533C107.13 296.533 104.878 295.893 102.861 294.615C100.858 293.322 99.2674 291.426 98.0884 288.926C96.9237 286.412 96.3413 283.33 96.3413 279.679C96.3413 275.929 96.945 272.811 98.1523 270.325C99.3597 267.825 100.965 265.957 102.968 264.722C104.985 263.472 107.194 262.847 109.594 262.847C111.426 262.847 112.953 263.159 114.175 263.784C115.411 264.395 116.405 265.162 117.158 266.085C117.925 266.994 118.507 267.889 118.905 268.77H119.182V252.364H128.238V296H119.289V290.759H118.905C118.479 291.668 117.875 292.57 117.094 293.464C116.327 294.345 115.326 295.077 114.09 295.659C112.868 296.241 111.377 296.533 109.615 296.533ZM112.492 289.31C113.955 289.31 115.191 288.912 116.199 288.116C117.222 287.307 118.003 286.178 118.543 284.729C119.097 283.28 119.374 281.582 119.374 279.636C119.374 277.69 119.104 276 118.564 274.565C118.025 273.131 117.243 272.023 116.221 271.241C115.198 270.46 113.955 270.07 112.492 270.07C111 270.07 109.743 270.474 108.721 271.284C107.698 272.094 106.924 273.216 106.398 274.651C105.873 276.085 105.61 277.747 105.61 279.636C105.61 281.54 105.873 283.223 106.398 284.686C106.938 286.135 107.712 287.271 108.721 288.095C109.743 288.905 111 289.31 112.492 289.31ZM147.76 296.533C145.274 296.533 143.023 295.893 141.006 294.615C139.003 293.322 137.412 291.426 136.233 288.926C135.068 286.412 134.486 283.33 134.486 279.679C134.486 275.929 135.089 272.811 136.297 270.325C137.504 267.825 139.109 265.957 141.112 264.722C143.129 263.472 145.338 262.847 147.739 262.847C149.571 262.847 151.098 263.159 152.32 263.784C153.555 264.395 154.55 265.162 155.303 266.085C156.07 266.994 156.652 267.889 157.05 268.77H157.327V252.364H166.382V296H157.433V290.759H157.05C156.624 291.668 156.02 292.57 155.239 293.464C154.472 294.345 153.47 295.077 152.234 295.659C151.013 296.241 149.521 296.533 147.76 296.533ZM150.636 289.31C152.099 289.31 153.335 288.912 154.344 288.116C155.366 287.307 156.148 286.178 156.688 284.729C157.241 283.28 157.518 281.582 157.518 279.636C157.518 277.69 157.249 276 156.709 274.565C156.169 273.131 155.388 272.023 154.365 271.241C153.342 270.46 152.099 270.07 150.636 270.07C149.145 270.07 147.888 270.474 146.865 271.284C145.842 272.094 145.068 273.216 144.543 274.651C144.017 276.085 143.754 277.747 143.754 279.636C143.754 281.54 144.017 283.223 144.543 284.686C145.082 286.135 145.857 287.271 146.865 288.095C147.888 288.905 149.145 289.31 150.636 289.31ZM181.643 282.918V282.193C181.657 279.707 181.877 277.726 182.304 276.249C182.744 274.771 183.383 273.578 184.221 272.669C185.059 271.76 186.068 270.936 187.247 270.197C188.127 269.629 188.916 269.04 189.612 268.429C190.308 267.818 190.862 267.143 191.274 266.405C191.686 265.652 191.892 264.814 191.892 263.891C191.892 262.911 191.657 262.051 191.189 261.312C190.72 260.574 190.088 260.006 189.292 259.608C188.511 259.21 187.645 259.011 186.693 259.011C185.77 259.011 184.896 259.217 184.072 259.629C183.248 260.027 182.574 260.624 182.048 261.419C181.522 262.2 181.238 263.173 181.196 264.338H172.502C172.574 261.497 173.255 259.153 174.548 257.307C175.841 255.446 177.552 254.061 179.683 253.152C181.814 252.229 184.164 251.767 186.735 251.767C189.562 251.767 192.062 252.236 194.235 253.173C196.409 254.097 198.113 255.439 199.349 257.2C200.585 258.962 201.203 261.085 201.203 263.571C201.203 265.233 200.926 266.71 200.372 268.003C199.832 269.281 199.072 270.418 198.092 271.412C197.112 272.392 195.954 273.28 194.619 274.075C193.497 274.743 192.574 275.439 191.849 276.163C191.139 276.888 190.606 277.726 190.251 278.678C189.91 279.629 189.733 280.801 189.718 282.193V282.918H181.643ZM185.862 296.554C184.441 296.554 183.227 296.057 182.218 295.062C181.224 294.054 180.734 292.847 180.748 291.44C180.734 290.048 181.224 288.855 182.218 287.861C183.227 286.866 184.441 286.369 185.862 286.369C187.211 286.369 188.397 286.866 189.42 287.861C190.443 288.855 190.961 290.048 190.975 291.44C190.961 292.378 190.713 293.237 190.23 294.018C189.761 294.786 189.143 295.403 188.376 295.872C187.609 296.327 186.771 296.554 185.862 296.554Z" fill="black"/>
</svg>
